<?xml version="1.0" encoding="UTF-8" standalone="no"?>
<svg
   xmlns:dc="http://purl.org/dc/elements/1.1/"
   xmlns:cc="http://creativecommons.org/ns#"
   xmlns:rdf="http://www.w3.org/1999/02/22-rdf-syntax-ns#"
   xmlns:svg="http://www.w3.org/2000/svg"
   xmlns="http://www.w3.org/2000/svg"
   xmlns:sodipodi="http://sodipodi.sourceforge.net/DTD/sodipodi-0.dtd"
   xmlns:inkscape="http://www.inkscape.org/namespaces/inkscape"
   height="46"
   viewBox="0 0 260 46"
   width="260"
   version="1.1"
   id="svg268"
   sodipodi:docname="logo-giallozafferano.svg"
   inkscape:version="0.92.2 5c3e80d, 2017-08-06">
  <metadata
     id="metadata274">
    <rdf:RDF>
      <cc:Work
         rdf:about="">
        <dc:format>image/svg+xml</dc:format>
        <dc:type
           rdf:resource="http://purl.org/dc/dcmitype/StillImage" />
      </cc:Work>
    </rdf:RDF>
  </metadata>
  <defs
     id="defs272" />
  <sodipodi:namedview
     pagecolor="#ffffff"
     bordercolor="#666666"
     borderopacity="1"
     objecttolerance="10"
     gridtolerance="10"
     guidetolerance="10"
     inkscape:pageopacity="0"
     inkscape:pageshadow="2"
     inkscape:window-width="1727"
     inkscape:window-height="666"
     id="namedview270"
     showgrid="false"
     inkscape:zoom="3.5846154"
     inkscape:cx="124.97854"
     inkscape:cy="23"
     inkscape:window-x="0"
     inkscape:window-y="1"
     inkscape:window-maximized="0"
     inkscape:current-layer="g266" />
  <mask
     id="a"
     fill="#fff">
    <path
       d="m.34462057.28103108h42.96567233v42.81149412h-42.96567233z"
       fill="#fff"
       fill-rule="evenodd"
       id="path224" />
  </mask>
  <mask
     id="b"
     fill="#fff">
    <path
       d="m0 .4383021h24.3372277v26.6864274h-24.3372277z"
       fill="#fff"
       fill-rule="evenodd"
       id="path227" />
  </mask>
  <g
     fill="none"
     fill-rule="evenodd"
     id="g266">
    <g
       fill="#7b69a2"
       id="g250">
      <path
         d="m16.2515346 38.4200511 10.446914-14.1827608h-5.1298483l-1.1456661 5.0009347h-4.1713996v-10.4876897h20.9666104v5.2256709l-10.5196964 14.1818743h5.0579426l1.402597-5.7106047h4.3191568v5.4614888c4.1955144-5.0824958 7.8618213-12.5267165 4.5467117-21.2586269-2.8016864-7.37861715-3.9876898-10.50364726-3.9876898-10.50364726s-7.488263 3.13877138-11.5829342 10.14903396l1.0027319-11.91057576c.6874873-.37721995 1.1487352-1.11747531 1.1311973-1.96455794-.0236762-1.20391231-1.0110624-2.16447121-2.2049579-2.13920501-1.1921416.02349313-2.139629 1.02217297-2.1150758 2.22918815.0157841.85772103.5230691 1.58733799 1.240371 1.9290966l.1819561 12.94914956-3.5273187-8.79086481c.5300843-.59708022.7146712-1.46898579.4003035-2.26775235-.4415177-1.11836184-1.6989882-1.66623946-2.8073861-1.21854011-1.1092749.44769935-1.6485666 1.7189882-1.2070489 2.83735004.3099831.78546856 1.0189544 1.28813298 1.7980775 1.36481811l3.3238786 6.38437002c-5.8256661-4.9871934-13.2871838-5.77044566-13.2871838-5.77044566s-.1889713 2.49825106-.6274199 8.26958326c-5.16273187-.7845821-9.41173693.1923777-9.41173693.1923777s.82340641 3.2429391 2.76617201 10.9008143c1.97038786 7.7713515 7.58691402 11.758092 13.14074202 13.8019947z"
         mask="url(#a)"
         transform="translate(87.689713 .162236)"
         id="path230" />
      <path
         d="m117.250968 45.2655071s.800607-.511973 2.006779-1.4587906h-13.687926c6.10452 1.86172 11.684216 1.5487737 11.684216 1.5487737s-.020607-.0837774-.060067-.2433534c.037268.1001783.056998.1533703.056998.1533703"
         id="path232" />
      <path
         d="m146.852691 43.1772778h-7.862259v-1.3054204c-1.292108 1.2296218-2.546948 1.7522332-4.356425 1.7522332-3.358516 0-6.017268-2.4242255-6.017268-5.5217731 0-2.9858444 2.733288-5.2247844 6.38688-5.2247844 1.624452 0 2.878415.372344 3.986813 1.1564828.036829-.2610841.036829-.5602891.036829-.70967 0-1.6041821-1.145227-2.425112-3.322124-2.425112-1.476695 0-2.400068.4113515-3.212513 1.4180101h-2.43602v-4.6649385c3.802226-.7469044 5.057504-.8962853 7.013423-.8962853 6.054098 0 8.675582 1.791684 8.675582 5.859099v5.9348977h1.107082zm-10.999797-5.3746086c0 .9326331.775177 1.7531198 1.660404 1.7531198.849714 0 1.587623-.7836955 1.587623-1.6414166 0-.857721-.812007-1.642303-1.698112-1.642303-.812006 0-1.549915.7092267-1.549915 1.5305998z"
         id="path234" />
      <path
         d="m155.898675 38.5498396h1.549915v4.6272609h-10.115008v-4.6272609h1.218887v-6.754941h-1.181619v-4.5909131h1.181619v-1.0071019c0-5.1879932 3.247588-8.3976873 8.563777-8.3976873l1.329815.0376777v6.382597c-2.067285.073139-2.547386.4476993-2.547386 2.0514382v.9330763h2.510118v4.5909131h-2.510118z"
         id="path236" />
      <path
         d="m167.968857 38.5498396h1.550354v4.6272609h-10.114132v-4.6272609h1.218449v-6.754941h-1.181619v-4.5909131h1.181619v-1.0071019c0-5.1879932 3.248027-8.3976873 8.564216-8.3976873l1.329376.0376777v6.382597c-2.067285.073139-2.548263.4476993-2.548263 2.0514382v.9330763h2.510995v4.5909131h-2.510995z"
         id="path238" />
      <path
         d="m187.720438 41.349246c-2.953828 1.6046254-5.279797 2.2748446-7.937672 2.2748446-5.242091 0-8.895683-3.5080125-8.895683-8.581643 0-4.7407372 3.691737-8.2864274 8.637875-8.2864274 3.173491 0 5.794975 1.4556878 7.23484 3.9933896.774738 1.381219 1.070253 2.724317 1.143474 5.672927h-9.633592c.258684 2.4641195 1.0343 3.4331004 2.657875 3.4331004 1.366206 0 2.030894-.5970802 2.288263-2.1644712h4.50462zm-6.165025-7.6139918c-.03683-1.9782992-.591029-2.9477235-1.661281-2.9477235-1.07113 0-1.587623.8945122-1.698989 2.9477235z"
         id="path240" />
      <path
         d="m202.006408 33.1760732c-.627858-.1502674-.886104-.1866152-1.439865-.1866152-2.622361 0-3.691737.8945121-3.691737 3.0217489v2.5385883h2.141821v4.6272609h-10.337302v-4.6272609h1.218887v-6.7177065h-1.218887v-4.6281475h8.195481v2.2021489c1.402597-2.0532113 2.657437-2.7247603 5.131602-2.6489617z"
         id="path242" />
      <path
         d="m220.462374 43.1772778h-7.862698v-1.3054204c-1.292108 1.2296218-2.547824 1.7522332-4.355986 1.7522332-3.359393 0-6.016392-2.4242255-6.016392-5.5217731 0-2.9858444 2.731097-5.2247844 6.385127-5.2247844 1.624013 0 2.879292.372344 3.987251 1.1564828.038145-.2610841.038145-.5602891.038145-.70967 0-1.6041821-1.146104-2.425112-3.323878-2.425112-1.477134 0-2.398752.4113515-3.211198 1.4180101h-2.435581v-4.6649385c3.801349-.7469044 5.056627-.8962853 7.013861-.8962853 6.052344 0 8.674267 1.791684 8.674267 5.859099v5.9348977h1.107082zm-11.001113-5.3746086c0 .9326331.775177 1.7531198 1.66172 1.7531198.850152 0 1.587184-.7836955 1.587184-1.6414166 0-.857721-.812006-1.642303-1.697673-1.642303-.812883 0-1.551231.7092267-1.551231 1.5305998z"
         id="path244" />
      <path
         d="m229.358934 29.555471c1.403036-2.0523248 2.731535-2.7983426 4.836088-2.7983426 1.882698 0 3.469882.6702192 4.503305 1.9020573.66425.8204867.960203 1.8298049.960203 3.285936v6.6046735h1.254401v4.6281475h-8.490118v-9.1082438c0-1.1564828-.516493-1.826702-1.476695-1.826702-.922496 0-1.587184.6702192-1.587184 1.6409732v4.6658251h1.25484v4.6281475h-9.671298v-4.6281475h1.217571v-6.71682h-1.217571v-4.629034h8.416458z"
         id="path246" />
      <path
         d="m259.925332 35.190277c0 5.0386124-3.691298 8.4335919-9.191636 8.4335919-5.499898 0-9.190758-3.3949795-9.190758-8.4335919 0-5.1113081 3.69086-8.4331486 9.301247-8.4331486 5.389849 0 9.081147 3.4335437 9.081147 8.4331486m-11.221652 0c0 2.0164202.737909 3.1733462 1.992748 3.1733462 1.329376 0 2.067724-1.1192484 2.067724-3.2092508 0-1.9774126-.738348-3.1361117-2.030456-3.1361117-1.292107 0-2.030016 1.1586991-2.030016 3.1720163"
         id="path248" />
    </g>
    <text
       xml:space="preserve"
       style="font-style:normal;font-weight:normal;font-size:30.31138229px;line-height:1.25;font-family:sans-serif;letter-spacing:0px;word-spacing:0px;fill:#000000;fill-opacity:1;stroke:none;stroke-width:0.75778455"
       x="-0.11066449"
       y="42.601032"
       id="text278"
       transform="scale(1.0298467,0.97101832)"><tspan
         sodipodi:role="line"
         id="tspan276"
         x="-0.11066449"
         y="42.601032"
         style="font-style:normal;font-variant:normal;font-weight:normal;font-stretch:normal;font-size:30.31138229px;font-family:Chalkduster;-inkscape-font-specification:'Chalkduster, Normal';font-variant-ligatures:normal;font-variant-caps:normal;font-variant-numeric:normal;font-feature-settings:normal;text-align:start;writing-mode:lr-tb;text-anchor:start;fill:#008080;stroke-width:0.75778455">Verde</tspan></text>
  </g>
</svg>
